<svg xmlns="http://www.w3.org/2000/svg" width="256" height="256" viewBox="0 0 100 100"><rect width="100" height="100" rx="20" fill="#000000"></rect><path d="M35.58 73.00Q36.37 73.92 36.37 74.85L36.37 74.85Q36.37 75.77 35.45 76.70L35.45 76.70L34.79 77.42Q33.86 78.35 32.94 78.35L32.94 78.35Q31.95 78.35 31.02 77.36L31.02 77.36L5.81 49.90Q4.95 48.91 4.95 48.05L4.95 48.05Q4.95 47.06 5.94 46.20L5.94 46.20L30.96 22.64Q31.82 21.79 32.74 21.79L32.74 21.79Q33.73 21.79 34.66 22.77L34.66 22.77L35.38 23.57Q36.24 24.43 36.24 25.41L36.24 25.41Q36.24 26.47 35.31 27.33L35.31 27.33L15.45 46.20Q14.52 47.13 14.52 48.05L14.52 48.05Q14.52 48.91 15.32 49.90L15.32 49.90L35.58 73.00ZM57.16 20.13Q58.28 20.13 58.94 20.66Q59.60 21.19 59.60 22.25L59.60 22.25Q59.60 22.71 59.54 22.97L59.54 22.97L49.84 77.49Q49.44 79.87 47.00 79.87L47.00 79.87L45.41 79.87Q44.29 79.87 43.63 79.34Q42.97 78.81 42.97 77.75L42.97 77.75Q42.97 77.29 43.04 77.03L43.04 77.03L52.74 22.51Q53.14 20.13 55.58 20.13L55.58 20.13L57.16 20.13ZM64.36 27.53Q63.56 26.60 63.56 25.68L63.56 25.68Q63.56 24.62 64.42 23.77L64.42 23.77L65.28 22.84Q66.14 21.92 67.19 21.92L67.19 21.92Q68.18 21.92 69.04 22.84L69.04 22.84L94.19 50.30Q95.05 51.29 95.05 52.15L95.05 52.15Q95.05 53.07 94.06 53.99L94.06 53.99L69.11 77.56Q68.25 78.41 67.33 78.41L67.33 78.41Q66.34 78.41 65.34 77.42L65.34 77.42L64.62 76.63Q63.76 75.77 63.76 74.78L63.76 74.78Q63.76 73.73 64.69 72.87L64.69 72.87L84.55 53.99Q85.54 53.07 85.54 52.08L85.54 52.08Q85.54 51.16 84.75 50.30L84.75 50.30L64.36 27.53Z" fill="#ffc000"></path></svg>

